<svg width="62" height="62" viewBox="0 0 62 62" fill="none" xmlns="http://www.w3.org/2000/svg">
<g id="Group 1000008082">
<circle id="Ellipse 241" cx="31" cy="31" r="31" fill="#5567FF"/>
<g id="Group">
<path id="Vector" d="M47.3756 45.085C46.9422 45.2475 46.4788 45.3137 46.0154 45.3137H25.0601C23.8806 45.3137 22.8033 44.7179 22.1834 43.7129C21.5575 42.7079 21.5034 41.4801 22.0209 40.427L23.9167 36.5934C24.4944 35.4319 25.6559 34.7097 26.9559 34.7097C27.4734 34.7097 27.991 34.83 28.4544 35.0587C29.2668 35.462 29.8747 36.154 30.1635 37.0146C30.3321 37.5142 30.3802 38.0317 30.314 38.5373H40.6773L31.2649 19.8929L23.5977 34.9865L23.1102 35.9494C22.5686 37.0086 21.5455 37.785 20.3599 37.8873C20.2576 37.8933 20.1493 37.8993 20.047 37.8993C19.8604 37.8993 19.6738 37.8813 19.4933 37.8572C19.1262 37.7489 18.7531 37.6225 18.3799 37.4901C17.5073 37.0387 16.8453 36.2323 16.5685 35.2694C16.5384 35.1791 16.5203 35.0888 16.4962 34.9986C16.3939 34.5051 16.4962 33.9995 16.7189 33.5482C17.1161 32.7598 17.7841 31.4478 17.7841 31.4478L28.2618 10.8536C28.8395 9.71015 30.0011 9 31.2829 9C32.5708 9 33.7263 9.71616 34.3101 10.8656L49.2171 40.3969C50.0597 42.0579 49.4217 44.3087 47.3756 45.085Z" fill="white"/>
<path id="Vector_2" d="M19.4756 42.2805C19.4756 42.8041 19.3492 43.3036 19.1205 43.749C18.5849 44.8022 17.4956 45.5183 16.2378 45.5183C14.7573 45.5183 13.5115 44.5253 13.1264 43.1652C13.0421 42.8824 13 42.5875 13 42.2745C13 40.5473 14.3601 39.127 16.0693 39.0367C16.1234 39.0367 16.1836 39.0367 16.2378 39.0367C17.2609 39.0367 18.1756 39.5122 18.7714 40.2584C19.2108 40.8121 19.4756 41.5162 19.4756 42.2745V42.2805Z" fill="white"/>
<path id="Vector_3" d="M19.4937 37.8572C19.0965 37.797 18.7234 37.6707 18.3803 37.4901C18.7474 37.6225 19.1266 37.7429 19.4937 37.8572Z" fill="white"/>
</g>
</g>
</svg>
