<svg width="37" height="37" viewBox="0 0 37 37" fill="none" xmlns="http://www.w3.org/2000/svg">
<path d="M34.3755 36.085C33.9422 36.2475 33.4788 36.3137 33.0154 36.3137H12.0601C10.8806 36.3137 9.8033 35.7179 9.18342 34.7129C8.55753 33.7079 8.50337 32.4802 9.02093 31.427L10.9167 27.5934C11.4944 26.4319 12.6559 25.7097 13.9558 25.7097C14.4734 25.7097 14.991 25.8301 15.4544 26.0588C16.2668 26.462 16.8747 27.1541 17.1635 28.0147C17.332 28.5142 17.3802 29.0317 17.314 29.5373H27.6773L18.2649 10.8929L10.5977 25.9865L10.1102 26.9494C9.56859 28.0086 8.5455 28.785 7.35991 28.8873C7.2576 28.8933 7.14928 28.8993 7.04697 28.8993C6.8604 28.8993 6.67384 28.8813 6.4933 28.8572C6.12619 28.7489 5.75306 28.6225 5.37993 28.4901C4.50729 28.0387 3.84529 27.2323 3.56846 26.2694C3.53837 26.1791 3.52031 26.0888 3.49624 25.9986C3.39393 25.5051 3.49624 24.9996 3.71891 24.5482C4.11611 23.7598 4.78413 22.4478 4.78413 22.4478L15.2618 1.85361C15.8395 0.710159 17.001 1.33514e-05 18.2829 1.33514e-05C19.5708 1.33514e-05 20.7263 0.716177 21.3101 1.86565L36.2171 31.3969C37.0597 33.0579 36.4217 35.3087 34.3755 36.085Z" fill="#5567FF"/>
<path d="M6.47557 33.2806C6.47557 33.8041 6.34918 34.3037 6.12049 34.749C5.58488 35.8022 4.49558 36.5184 3.23778 36.5184C1.75731 36.5184 0.511546 35.5254 0.126382 34.1652C0.0421273 33.8824 0 33.5875 0 33.2745C0 31.5473 1.36011 30.127 3.06927 30.0368C3.12344 30.0368 3.18362 30.0368 3.23778 30.0368C4.26087 30.0368 5.17564 30.5122 5.77144 31.2585C6.21077 31.8121 6.47557 32.5163 6.47557 33.2745V33.2806Z" fill="#5567FF"/>
<path d="M6.4937 28.8573C6.0965 28.7971 5.72338 28.6707 5.38034 28.4901C5.74745 28.6225 6.1266 28.7429 6.4937 28.8573Z" fill="#5567FF"/>
</svg>
